<?xml version="1.0" encoding="UTF-8" standalone="no"?>
<!DOCTYPE svg PUBLIC "-//W3C//DTD SVG 1.1//EN"
 "http://www.w3.org/Graphics/SVG/1.1/DTD/svg11.dtd">
<!-- Generated by graphviz version 2.43.0 (0)
 -->
<!-- Title: Homelab Architecture Pages: 1 -->
<svg width="680pt" height="247pt"
 viewBox="0.00 0.00 680.00 247.00" xmlns="http://www.w3.org/2000/svg" xmlns:xlink="http://www.w3.org/1999/xlink">
<g id="graph0" class="graph" transform="scale(1 1) rotate(0) translate(4 243)">
<title>Homelab Architecture</title>
<polygon fill="white" stroke="transparent" points="-4,4 -4,-243 676,-243 676,4 -4,4"/>
<text text-anchor="middle" x="336" y="-227" font-family="Times,serif" font-size="10.00">Homelab: Caddy + Homepage + Pi&#45;hole</text>
<g id="clust1" class="cluster">
<title>cluster_clients</title>
<path fill="none" stroke="black" d="M32.5,-141C32.5,-141 118.5,-141 118.5,-141 124.5,-141 130.5,-147 130.5,-153 130.5,-153 130.5,-200 130.5,-200 130.5,-206 124.5,-212 118.5,-212 118.5,-212 32.5,-212 32.5,-212 26.5,-212 20.5,-206 20.5,-200 20.5,-200 20.5,-153 20.5,-153 20.5,-147 26.5,-141 32.5,-141"/>
<text text-anchor="middle" x="75.5" y="-200" font-family="Times,serif" font-size="10.00">Clients</text>
</g>
<g id="clust2" class="cluster">
<title>cluster_proxy</title>
<path fill="none" stroke="black" d="M543,-49C543,-49 653,-49 653,-49 659,-49 665,-55 665,-61 665,-61 665,-162 665,-162 665,-168 659,-174 653,-174 653,-174 543,-174 543,-174 537,-174 531,-168 531,-162 531,-162 531,-61 531,-61 531,-55 537,-49 543,-49"/>
<text text-anchor="middle" x="598" y="-162" font-family="Times,serif" font-size="10.00">Docker Network: proxy</text>
</g>
<g id="clust3" class="cluster">
<title>cluster_ops</title>
<path fill="none" stroke="black" d="M20,-8C20,-8 402,-8 402,-8 408,-8 414,-14 414,-20 414,-20 414,-121 414,-121 414,-127 408,-133 402,-133 402,-133 20,-133 20,-133 14,-133 8,-127 8,-121 8,-121 8,-20 8,-20 8,-14 14,-8 20,-8"/>
<text text-anchor="middle" x="211" y="-121" font-family="Times,serif" font-size="10.00">Monitoring &amp; Self&#45;Healing</text>
</g>
<!-- U1 -->
<g id="node1" class="node">
<title>U1</title>
<polygon fill="none" stroke="black" points="122.5,-185 32.5,-185 28.5,-181 28.5,-149 118.5,-149 122.5,-153 122.5,-185"/>
<polyline fill="none" stroke="black" points="118.5,-181 28.5,-181 "/>
<polyline fill="none" stroke="black" points="118.5,-181 118.5,-149 "/>
<polyline fill="none" stroke="black" points="118.5,-181 122.5,-185 "/>
<text text-anchor="middle" x="75.5" y="-164.5" font-family="Times,serif" font-size="10.00">Laptop / Phone</text>
</g>
<!-- RP -->
<g id="node2" class="node">
<title>RP</title>
<path fill="#eef5ff" stroke="black" d="M416,-177C416,-177 259,-177 259,-177 253,-177 247,-171 247,-165 247,-165 247,-153 247,-153 247,-147 253,-141 259,-141 259,-141 416,-141 416,-141 422,-141 428,-147 428,-153 428,-153 428,-165 428,-165 428,-171 422,-177 416,-177"/>
<text text-anchor="middle" x="337.5" y="-162" font-family="Times,serif" font-size="10.00">Caddy Reverse Proxy</text>
<text text-anchor="middle" x="337.5" y="-151" font-family="Times,serif" font-size="10.00">(TLS termination • cert rotation)</text>
</g>
<!-- U1&#45;&gt;RP -->
<g id="edge1" class="edge">
<title>U1&#45;&gt;RP</title>
<path fill="none" stroke="black" d="M122.68,-165.58C154.3,-164.61 197.44,-163.28 236.69,-162.07"/>
<polygon fill="black" stroke="black" points="236.96,-165.56 246.84,-161.76 236.74,-158.57 236.96,-165.56"/>
<text text-anchor="middle" x="191" y="-166.8" font-family="Times,serif" font-size="9.00">HTTPS (LAN)</text>
</g>
<!-- HP -->
<g id="node3" class="node">
<title>HP</title>
<path fill="#eef5ff" stroke="black" d="M637.5,-147C637.5,-147 558.5,-147 558.5,-147 552.5,-147 546.5,-141 546.5,-135 546.5,-135 546.5,-123 546.5,-123 546.5,-117 552.5,-111 558.5,-111 558.5,-111 637.5,-111 637.5,-111 643.5,-111 649.5,-117 649.5,-123 649.5,-123 649.5,-135 649.5,-135 649.5,-141 643.5,-147 637.5,-147"/>
<text text-anchor="middle" x="598" y="-126.5" font-family="Times,serif" font-size="10.00">Homepage :3000</text>
</g>
<!-- RP&#45;&gt;HP -->
<g id="edge2" class="edge">
<title>RP&#45;&gt;HP</title>
<path fill="none" stroke="black" d="M428.19,-148.59C463.84,-144.45 503.95,-139.8 536.12,-136.07"/>
<polygon fill="black" stroke="black" points="536.74,-139.52 546.27,-134.89 535.93,-132.56 536.74,-139.52"/>
<text text-anchor="middle" x="483.5" y="-147.8" font-family="Times,serif" font-size="9.00">HTTP :3000</text>
</g>
<!-- PH -->
<g id="node4" class="node">
<title>PH</title>
<path fill="#eef5ff" stroke="black" d="M644,-93C644,-93 552,-93 552,-93 546,-93 540,-87 540,-81 540,-81 540,-69 540,-69 540,-63 546,-57 552,-57 552,-57 644,-57 644,-57 650,-57 656,-63 656,-69 656,-69 656,-81 656,-81 656,-87 650,-93 644,-93"/>
<text text-anchor="middle" x="598" y="-72.5" font-family="Times,serif" font-size="10.00">Pi&#45;hole :80 (/admin)</text>
</g>
<!-- RP&#45;&gt;PH -->
<g id="edge3" class="edge">
<title>RP&#45;&gt;PH</title>
<path fill="none" stroke="black" d="M419.1,-140.94C422.14,-139.71 425.12,-138.39 428,-137 437.12,-132.58 437.01,-127.67 446,-123 476.94,-106.92 487.77,-110.56 521,-100 524.95,-98.75 529,-97.44 533.09,-96.12"/>
<polygon fill="black" stroke="black" points="534.23,-99.44 542.66,-93.02 532.07,-92.78 534.23,-99.44"/>
<text text-anchor="middle" x="483.5" y="-125.8" font-family="Times,serif" font-size="9.00">HTTP :80</text>
</g>
<!-- WD -->
<g id="node5" class="node">
<title>WD</title>
<polygon fill="#efffee" stroke="black" points="135,-78 16,-78 16,-74 12,-74 12,-70 16,-70 16,-50 12,-50 12,-46 16,-46 16,-42 135,-42 135,-78"/>
<polyline fill="none" stroke="black" points="16,-74 20,-74 20,-70 16,-70 "/>
<polyline fill="none" stroke="black" points="16,-50 20,-50 20,-46 16,-46 "/>
<text text-anchor="middle" x="75.5" y="-57.5" font-family="Times,serif" font-size="10.00">Watchdog container</text>
</g>
<!-- ZG -->
<g id="node6" class="node">
<title>ZG</title>
<polygon fill="#efffee" stroke="black" points="384,-52 285,-52 285,-16 390,-16 390,-46 384,-52"/>
<polyline fill="none" stroke="black" points="384,-52 384,-46 "/>
<polyline fill="none" stroke="black" points="390,-46 384,-46 "/>
<text text-anchor="middle" x="337.5" y="-31.5" font-family="Times,serif" font-size="10.00">zombie_guard.py</text>
</g>
<!-- WD&#45;&gt;ZG -->
<g id="edge4" class="edge">
<title>WD&#45;&gt;ZG</title>
<path fill="none" stroke="black" d="M135.36,-52.05C141.31,-51.32 147.27,-50.62 153,-50 193.36,-45.6 238.83,-41.63 274.4,-38.75"/>
<polygon fill="black" stroke="black" points="274.95,-42.21 284.63,-37.92 274.39,-35.24 274.95,-42.21"/>
<text text-anchor="middle" x="191" y="-52.8" font-family="Times,serif" font-size="9.00">executes checks</text>
</g>
<!-- SMK -->
<g id="node7" class="node">
<title>SMK</title>
<polygon fill="#efffee" stroke="black" points="400,-106 269,-106 269,-70 406,-70 406,-100 400,-106"/>
<polyline fill="none" stroke="black" points="400,-106 400,-100 "/>
<polyline fill="none" stroke="black" points="406,-100 400,-100 "/>
<text text-anchor="middle" x="337.5" y="-85.5" font-family="Times,serif" font-size="10.00">smoke_test_zombies.py</text>
</g>
<!-- WD&#45;&gt;SMK -->
<g id="edge5" class="edge">
<title>WD&#45;&gt;SMK</title>
<path fill="none" stroke="black" d="M135.17,-66.32C171.69,-70.25 219.07,-75.35 258.69,-79.62"/>
<polygon fill="black" stroke="black" points="258.54,-83.12 268.85,-80.72 259.29,-76.16 258.54,-83.12"/>
<text text-anchor="middle" x="191" y="-77.8" font-family="Times,serif" font-size="9.00">periodic checks</text>
</g>
<!-- ZG&#45;&gt;HP -->
<g id="edge6" class="edge">
<title>ZG&#45;&gt;HP</title>
<path fill="none" stroke="black" d="M390.29,-48.52C443.76,-63.54 519.64,-84.98 521,-86 527.7,-91.04 524.59,-96.6 531,-102 533.03,-103.71 535.18,-105.32 537.42,-106.84"/>
<polygon fill="black" stroke="black" points="536.05,-110.1 546.43,-112.26 539.66,-104.1 536.05,-110.1"/>
<text text-anchor="middle" x="483.5" y="-88.8" font-family="Times,serif" font-size="9.00">detect → restart</text>
</g>
<!-- ZG&#45;&gt;PH -->
<g id="edge7" class="edge">
<title>ZG&#45;&gt;PH</title>
<path fill="none" stroke="black" d="M390.35,-37.46C427.06,-40.44 477.33,-45.63 521,-54 524,-54.57 527.05,-55.21 530.12,-55.89"/>
<polygon fill="black" stroke="black" points="529.43,-59.32 539.96,-58.18 531.02,-52.5 529.43,-59.32"/>
<text text-anchor="middle" x="483.5" y="-56.8" font-family="Times,serif" font-size="9.00">detect → restart</text>
</g>
</g>
</svg>
